<?xml version="1.0" encoding="UTF-8"?>
<svg id="Layer_1" data-name="Layer 1" xmlns="http://www.w3.org/2000/svg" viewBox="0 0 400 400">
  <defs>
    <style>
      .cls-1 {
        fill: #231f20;
      }
    </style>
  </defs>
  <path class="cls-1" d="m318.24,109.75c-9.97.01-18.05,8.09-18.07,18.06v86.39c0,2.21-1.79,4-4,4s-4-1.79-4-4V85.35c-.01-11.69-9.49-21.17-21.18-21.18-5.74-.08-11.26,2.19-15.28,6.29-3.84,4.04-5.96,9.42-5.9,15v128.74c0,2.21-1.79,4-4,4s-4-1.79-4-4v-127.17c-.02-12.62-10.24-22.84-22.86-22.86-14.31,0-22.86,12.36-22.86,24.3v125.73c0,2.21-1.79,4-4,4s-4-1.79-4-4v-103c-.01-11.69-9.49-21.17-21.18-21.18-13.26,0-21.18,11.45-21.18,22.53v156.29h47c18.76,0,36.6,8.16,48.85,22.37,1.44,1.67,1.26,4.2-.41,5.64-1.67,1.44-4.2,1.26-5.64-.41-10.74-12.45-26.36-19.6-42.8-19.6h-51c-.18,0-.35-.02-.53-.05h-.21c-.33-.07-.65-.18-.95-.32l-.21-.11c-.26-.15-.51-.32-.74-.51l-.1-.08-19.83-18.63c-14.82-14.04-38.13-13.72-52.56.73-3.77,3.72-3.9,9.76-.3,13.64l75.11,81.49c30.13,33.4,60.75,47,105.69,47,49.19,0,89.21-40.43,89.21-90.14v-181.16c.04-9.19-6.33-18.95-18.07-18.95Z"/>
</svg>