<?xml version="1.0" encoding="UTF-8"?>
<svg id="Layer_1" data-name="Layer 1" xmlns="http://www.w3.org/2000/svg" viewBox="0 0 400 400">
  <defs>
    <style>
      .cls-1 {
        fill: #231f20;
      }
    </style>
  </defs>
  <path class="cls-1" d="m261.51,222.78v-53.4c0-14.69-11.92-26.58-26.61-26.57-14.67,0-26.57,11.9-26.57,26.57v51.93h46.9c2.18,0,4.33.51,6.28,1.47Z"/>
  <path class="cls-1" d="m138.49,221.31v-53.95c0-12.27-9.95-22.22-22.22-22.22s-22.22,9.95-22.22,22.22v66.48c10.02-8.12,22.53-12.54,35.42-12.53h9.02Z"/>
  <path class="cls-1" d="m294.24,276.84c-11.68-.01-22.47-6.25-28.31-16.37-7.56,18.78-25.76,31.09-46,31.11h-33.24c16.26,9.91,26.19,27.58,26.2,46.63v15c0,2.21-1.79,4-4,4s-4-1.79-4-4v-15c-.03-25.74-20.89-46.6-46.63-46.63h-.71c-2.21,0-4-1.79-4-4h0c0-2.21,1.79-4,4-4h62.39c22.95-.02,41.54-18.61,41.57-41.56v-6.43c0-3.47-2.81-6.28-6.28-6.28h-125.76c-14.23,0-27.74,6.27-36.94,17.13-.67.79-1.33,1.59-1.94,2.42-.26.34-.5.69-.74,1-.61.86-1.2,1.73-1.75,2.63-.18.29-.35.59-.52.89-.56,1-1.09,1.94-1.59,2.93l-.24.49c-.56,1.16-1.06,2.34-1.52,3.54-.06.16-.13.31-.19.47-.45,1.21-.85,2.45-1.21,3.7,0,.16-.09.32-.13.48-.35,1.26-.64,2.53-.88,3.81l-.09.5c-.23,1.29-.41,2.6-.53,3.91v.46c-.11,1.36-.18,2.72-.18,4.09,0,3.3.16,6.55.42,9.78,5,62.85,57.71,112.46,121.82,112.46h14.54c55.84-.08,101.09-45.33,101.18-101.17v-33.34c-6.2,7.2-15.23,11.35-24.74,11.35Z"/>
  <path class="cls-1" d="m200.33,169.68c0-14.87-12.06-26.92-26.93-26.91-14.86,0-26.9,12.05-26.91,26.91v51.6h53.84v-51.6Z"/>
  <path class="cls-1" d="m294.24,181.77c-13.66.02-24.72,11.08-24.73,24.74v37.6c.27,13.66,11.57,24.51,25.23,24.24,13.27-.27,23.97-10.96,24.24-24.24v-37.6c-.02-13.66-11.08-24.72-24.74-24.74Z"/>
</svg>